<svg width="194" height="21" viewBox="0 0 194 21" fill="none" xmlns="http://www.w3.org/2000/svg">
<path d="M10.0652 3.45823L9.6005 9.6132H10.7163C12.69 9.6132 13.8288 8.98632 13.9209 7.19777C14.037 4.71315 13.6424 3.45823 11.2741 3.45823H10.0652ZM9.08976 16.2548C9.04372 16.5343 8.9978 16.7898 8.92758 16.999C9.36925 17.2543 9.87999 17.5098 10.4838 17.6731C13.5033 18.2298 14.2222 16.0236 14.2222 13.7702C14.2222 11.2398 12.8764 10.6819 10.8324 10.6347H9.50841L9.08976 16.2548ZM5.5137 4.13232C5.55961 3.66762 5.32836 3.48242 4.93273 3.48242H3.88837V2.45978H13.7126C16.4294 2.45978 18.4964 3.52833 18.4964 6.59378C18.4964 8.40548 17.4739 9.54426 15.9418 10.147C17.4739 10.5427 19.0073 11.6572 19.0532 13.9324C19.0774 16.0696 18.3102 17.5568 16.1731 18.4852C15.1286 18.9728 11.7146 19.0188 10.3907 18.7877C9.76372 18.6933 9.06674 18.3691 8.41684 17.9745C7.97517 18.5311 7.37131 18.7175 6.72025 18.7175H4.39897L5.5137 4.13232Z" fill="#37458C"/>
<path d="M26.6076 13.6912C26.6076 13.6912 26.5293 14.5906 26.687 15.1899C26.8744 16.9544 31.7699 17.0522 35.445 14.3111V15.0451C32.8925 18.6603 26.267 19.1572 24.9904 19.1572C24.2346 19.1572 22.3838 19.0468 21.8478 18.321" fill="#37458C"/>
<path d="M26.2092 18.7173H22.7091C21.9659 18.7173 21.4782 18.1364 21.5484 17.3934L22.617 4.15514C22.663 3.69032 22.4536 3.50524 22.0821 3.50524H20.9905V2.45958H26.9822C27.3767 2.45958 27.516 2.78511 27.4941 3.04055L26.2863 17.5566" fill="#37458C"/>
<path d="M40.3361 10.8368L39.8105 17.5797H47.7298V18.7173H36.4896C35.6062 18.7173 35.0494 18.0444 35.1185 17.3473L36.141 4.06293C36.1871 3.59823 35.9087 3.48209 35.6763 3.48209H34.5146V2.45958H49.0354L46.6372 3.57405H40.9249L40.4372 9.63589L40.3361 10.8368Z" fill="#37458C"/>
<path d="M56.949 4.71903C50.3672 0.905897 44.7978 5.17221 42.4972 8.06048C40.1967 10.9476 35.445 14.311 35.445 14.311L35.4485 14.7457C41.3045 11.1546 42.6927 9.50862 42.6927 9.50862C49.2021 3.26972 53.0278 7.03099 53.0278 7.03099H53.0289C55.0235 8.89791 56.6235 11.1523 57.7244 13.6518L58.9333 16.3952C59.8615 18.1367 60.884 18.7175 61.7663 18.7175H63.3686L64.4141 4.4107C64.4602 3.80684 64.6235 3.50549 65.2044 3.50549H66.1097V2.45996H61.3258V3.50549H62.3241C62.812 3.50549 63.0673 3.80684 63.0201 4.4107L62.3241 13.8865C62.3241 13.8865 60.9634 7.04482 56.949 4.71903ZM52.3146 7.63032L51.7453 16.8197C51.7326 17.2775 51.7798 17.7883 52.5228 17.7883H53.2889V18.7175H48.8535V17.7883H49.5725C50.2235 17.7883 50.4086 17.4868 50.4789 16.6737L51.0667 6.89648L52.3146 7.63032Z" fill="#37458C"/>
<path d="M73.3876 3.45824L72.4352 16.2548C72.3891 16.5574 72.3202 16.8127 72.25 17.0449C72.5985 17.2774 73.039 17.4867 73.6441 17.719C75.3613 18.1136 76.4541 17.1152 77.173 15.3035C77.8942 13.5148 77.9633 10.9601 77.9633 8.24214C77.9633 4.57283 76.5001 3.45824 74.6425 3.45824H73.3876ZM68.8361 4.13232C68.882 3.66763 68.6508 3.48242 68.2551 3.48242H67.2108V2.45978H75.7329C80.7272 2.45978 82.6551 5.43212 82.6551 8.80008C82.6551 11.7032 82.4688 15.1643 80.3788 17.2314C79.0318 18.5553 75.4786 19.135 73.6671 18.8336C73.039 18.7415 72.3891 18.4161 71.7381 17.9975C71.2976 18.5553 70.6707 18.7175 70.0426 18.7175H67.7214L68.8361 4.13232Z" fill="#37458C"/>
<path d="M86.1704 4.06238C86.2165 3.59768 85.9392 3.48154 85.7057 3.48154H84.5451V2.46007H98.202V3.57466H90.9555L90.4666 9.63651H96.8999V10.7282H90.3747L89.8397 17.579H97.7604V18.7178H86.519C85.6368 18.7178 85.0789 18.0437 85.1479 17.3477L86.1704 4.06238Z" fill="#37458C"/>
<path d="M105.687 3.45824L104.735 16.2548C104.689 16.5574 104.62 16.8127 104.55 17.0449C104.898 17.2774 105.34 17.4867 105.944 17.719C107.661 18.1136 108.754 17.1152 109.473 15.3035C110.194 13.5148 110.263 10.9601 110.263 8.24214C110.263 4.57283 108.8 3.45824 106.942 3.45824H105.687ZM101.136 4.13232C101.182 3.66763 100.951 3.48242 100.555 3.48242H99.5106V2.45978H108.033C113.027 2.45978 114.955 5.43212 114.955 8.80008C114.955 11.7032 114.769 15.1643 112.679 17.2314C111.332 18.5553 107.779 19.135 105.967 18.8336C105.34 18.7415 104.689 18.4161 104.038 17.9975C103.597 18.5553 102.97 18.7175 102.342 18.7175H100.021L101.136 4.13232Z" fill="#37458C"/>
<path d="M129.315 11.7496L129.762 14.3044L132.593 6.94272L132.315 4.22465C132.292 3.94633 132.246 3.57475 131.595 3.57475H130.736V2.46016H136.31L137.518 14.3975L141.699 4.48008C141.954 3.92331 141.861 3.52754 141.28 3.52754H140.537V2.46016H144.834V3.52754H144.183C143.534 3.52754 143.44 3.69089 143.069 4.50414L136.891 18.8098H135.265C134.591 18.8098 133.732 17.9276 133.64 16.3954L132.873 9.38129L129.25 18.8098H127.554C126.834 18.8098 126.091 17.9046 125.836 16.3954L124.738 10.589" fill="#37458C"/>
<path d="M149.838 5.66495L147.562 11.7497H151.418L149.838 5.66495ZM145.704 16.789C145.473 17.2307 145.612 17.6483 146.331 17.6483H146.935V18.7169H142.406V17.6483H143.056C143.776 17.6483 144.033 17.5102 144.404 16.697L149.838 2.45917H152.276C152.974 2.45917 153.507 3.11023 153.763 3.89929L157.084 15.3272C157.456 16.604 159.57 17.0915 163.06 14.66L163.432 15.1947C160.88 18.81 156.481 19.0654 155.203 19.0654C153.763 19.0654 153.136 17.8346 152.88 16.9754L151.766 12.7954H147.144L145.704 16.789Z" fill="#37458C"/>
<path d="M172.051 4.41008C172.282 3.96957 172.144 3.5279 171.424 3.5279H170.727V2.45935H175.278V3.5279H174.769C174.047 3.5279 173.7 3.69009 173.329 4.5032L167.011 18.8101H165.129C164.735 18.8101 163.806 18.5776 163.573 17.0686L160.577 4.08572C160.485 3.80739 160.461 3.5279 159.881 3.5279H158.649V2.45935H165.129L167.638 14.5829L172.051 4.41008Z" fill="#37458C"/>
<path d="M115.945 3.76683C115.945 3.76683 116.087 3.61499 116.754 3.45863C117.307 3.32852 122.489 2.89499 125.065 12.312L129.316 11.7497C129.316 11.7497 126.243 -1.74057 115.92 2.98695L115.945 3.76683Z" fill="#37458C"/>
<path d="M177.96 4.06299C178.007 3.5983 177.728 3.48215 177.496 3.48215H176.334V2.45952H189.991V3.57527H182.744L182.256 9.63596H188.69V10.7264H182.165L181.631 17.5773H189.548V18.7161H178.308C177.427 18.7161 176.869 18.0433 176.939 17.3449L177.96 4.06299Z" fill="#37458C"/>
</svg>
